<?xml version="1.0" standalone="no"?>
<!DOCTYPE svg PUBLIC "-//W3C//DTD SVG 20010904//EN"
 "http://www.w3.org/TR/2001/REC-SVG-20010904/DTD/svg10.dtd">
<svg version="1.0" xmlns="http://www.w3.org/2000/svg"
 width="720.000000pt" height="720.000000pt" viewBox="0 0 720.000000 720.000000"
 preserveAspectRatio="xMidYMid meet">
<metadata>
Created by potrace 1.11, written by Peter Selinger 2001-2013
</metadata>
<g transform="translate(0.000000,720.000000) scale(0.100000,-0.100000)"
fill="#000000" stroke="none">
<path d="M3420 7178 c-3 -3 -57 -8 -120 -11 -122 -6 -291 -28 -405 -52 -38 -8
-72 -12 -77 -9 -5 3 -15 1 -23 -6 -7 -6 -24 -13 -37 -14 -13 -2 -30 -6 -38 -9
-49 -16 -102 -27 -110 -22 -6 3 -10 1 -10 -5 0 -6 -4 -8 -10 -5 -5 3 -10 2
-10 -3 0 -9 -95 -38 -117 -36 -7 1 -13 -3 -13 -8 0 -6 -13 -8 -32 -4 -21 4
-28 3 -19 -3 11 -7 9 -11 -8 -20 -12 -7 -25 -9 -30 -6 -5 3 -11 2 -13 -2 -5
-13 -119 -64 -128 -58 -4 3 -10 2 -12 -3 -5 -11 -108 -64 -108 -55 0 5 -4 3
-8 -3 -10 -14 -204 -127 -219 -127 -7 0 -10 -3 -8 -7 2 -3 -9 -14 -26 -24 -16
-9 -29 -14 -29 -11 0 3 -17 -10 -37 -30 -20 -20 -43 -33 -50 -30 -9 3 -11 0
-7 -6 4 -7 1 -10 -7 -7 -8 3 -13 10 -12 16 2 6 -4 9 -12 5 -14 -5 -13 -7 1
-18 14 -10 15 -13 3 -21 -8 -5 -25 -10 -39 -10 -34 -2 -34 -2 -21 -18 17 -20
-39 -61 -59 -43 -12 10 -12 9 -3 -3 10 -13 5 -21 -25 -45 -20 -17 -40 -29 -45
-27 -4 1 -6 -1 -6 -5 3 -20 -2 -24 -16 -13 -13 11 -14 10 -10 -2 5 -13 -31
-57 -41 -50 -2 1 -3 0 -1 -2 3 -6 -35 -46 -45 -46 -5 0 -27 -19 -49 -42 -23
-24 -45 -42 -50 -41 -4 2 -6 -3 -3 -10 2 -7 -5 -22 -17 -33 -21 -17 -22 -18
-16 -1 4 11 3 16 -4 12 -6 -4 -8 -13 -5 -21 3 -8 -13 -28 -39 -50 -25 -20 -43
-40 -40 -44 6 -9 -19 -31 -31 -29 -20 3 -26 -2 -16 -14 8 -10 2 -25 -27 -62
-21 -28 -43 -49 -49 -48 -6 2 -9 -4 -6 -12 3 -7 -9 -36 -27 -62 -19 -26 -61
-101 -95 -167 -34 -65 -64 -115 -66 -110 -3 5 -3 3 -2 -4 5 -19 -32 -108 -38
-91 -3 8 -6 3 -6 -11 0 -30 -8 -69 -23 -107 -22 -56 -51 -179 -50 -208 0 -24
-2 -27 -10 -15 -8 11 -9 9 -4 -9 5 -15 2 -27 -6 -32 -8 -5 -9 -9 -3 -9 7 0 8
-18 2 -57 -4 -32 -10 -118 -12 -190 -3 -73 -8 -138 -12 -144 -4 -8 -3 -9 4 -5
7 4 12 3 12 -2 0 -16 -28 -34 -54 -36 -13 0 -22 -5 -18 -10 3 -5 -2 -7 -11 -3
-10 3 -17 3 -17 -2 0 -8 -88 -52 -105 -52 -5 0 -14 -7 -18 -15 -4 -8 -12 -14
-18 -14 -5 0 -23 -10 -39 -22 -25 -18 -32 -19 -47 -8 -15 12 -16 12 -6 0 15
-16 17 -34 4 -25 -5 3 -12 -4 -16 -15 -3 -11 -15 -20 -25 -20 -15 0 -31 -19
-34 -42 -1 -3 -12 -19 -26 -35 -14 -15 -26 -30 -27 -33 -7 -27 -29 -60 -39
-56 -7 3 -10 -2 -7 -15 7 -25 -16 -52 -38 -46 -10 3 -20 -2 -24 -11 -3 -9 -3
-13 1 -10 9 10 37 -20 29 -32 -17 -28 -36 -155 -34 -235 3 -165 6 -197 20
-206 7 -4 10 -11 7 -15 -4 -3 -1 -19 8 -35 8 -16 12 -29 10 -29 -3 0 10 -27
30 -60 19 -33 32 -65 29 -70 -4 -6 -3 -9 2 -8 4 2 9 0 10 -5 2 -4 15 -18 30
-31 25 -21 26 -26 13 -42 -12 -16 -12 -17 0 -6 12 10 19 6 44 -20 17 -18 30
-42 30 -53 -1 -13 5 -21 17 -21 10 0 15 4 13 8 -10 16 7 7 70 -36 36 -24 61
-48 58 -52 -4 -4 -1 -4 6 0 7 4 25 0 40 -10 15 -10 34 -19 42 -20 8 -1 47 -9
85 -18 39 -9 103 -16 143 -16 75 0 76 -1 75 -47 -1 -7 4 -13 10 -13 6 0 7 -3
4 -7 -4 -3 1 -12 11 -19 24 -18 93 -17 120 2 12 8 22 12 22 7 0 -4 7 3 16 16
18 25 19 57 9 326 -3 88 -12 410 -20 715 -9 360 -18 556 -25 558 -5 2 -8 8 -5
13 4 5 -1 6 -10 3 -36 -14 -44 12 -41 134 2 64 5 124 6 132 13 91 22 148 27
160 4 8 7 24 8 35 3 45 39 164 48 158 6 -3 7 -2 4 4 -8 12 13 83 24 83 5 0 5
7 2 17 -5 12 -3 14 7 8 8 -5 11 -4 7 2 -8 12 20 85 35 94 5 3 9 10 9 15 -1 18
11 44 20 44 6 0 8 4 5 8 -3 5 6 25 19 45 14 20 25 38 25 42 0 7 80 127 94 140
6 6 16 19 23 30 6 11 16 19 23 17 6 -1 9 2 5 8 -11 18 166 209 187 203 4 -2 5
3 2 10 -6 18 31 51 47 41 7 -4 10 -3 6 3 -9 14 29 47 44 37 8 -4 10 -3 5 4 -7
12 1 22 61 76 28 25 34 27 50 16 15 -12 16 -12 6 0 -16 18 -17 38 -1 22 16
-16 53 4 39 22 -8 10 1 21 37 47 26 19 48 32 49 29 1 -3 8 3 15 13 8 10 22 20
33 21 11 2 19 9 18 15 -2 6 1 11 6 11 4 0 25 11 45 25 21 14 42 22 48 19 7 -4
8 -2 4 4 -7 11 26 35 41 30 4 -2 9 1 10 6 3 14 144 87 155 80 7 -5 8 -2 3 6
-6 10 -4 12 9 7 9 -4 15 -3 12 2 -7 10 49 33 58 24 3 -4 6 -2 6 4 0 13 148 76
160 68 4 -3 10 0 12 6 6 19 80 40 96 27 10 -9 12 -8 10 1 -2 7 15 19 37 26 49
18 48 18 39 3 -4 -7 2 -4 14 6 17 14 22 16 22 5 0 -12 2 -12 9 0 5 8 14 10 21
6 8 -5 11 -4 7 3 -6 9 17 16 88 28 6 1 12 3 15 4 3 1 14 4 25 5 11 2 57 10
103 20 45 9 89 15 96 12 7 -3 17 -2 22 3 36 34 853 34 874 -1 3 -4 18 -6 33
-4 15 3 27 1 27 -4 0 -6 6 -8 14 -5 15 6 221 -32 240 -43 6 -4 24 -8 41 -10
16 -2 32 -8 33 -13 2 -6 8 -7 13 -4 6 3 22 1 37 -4 15 -6 36 -13 47 -18 11 -4
26 -8 34 -10 45 -9 130 -48 124 -57 -4 -6 0 -8 8 -5 20 7 145 -46 141 -61 -1
-7 2 -10 8 -6 6 4 18 1 27 -7 9 -7 19 -12 22 -11 14 6 41 -9 35 -19 -4 -7 -2
-8 4 -4 15 9 94 -32 87 -45 -4 -5 -11 -6 -17 -3 -6 4 -8 3 -5 -3 4 -6 19 -9
34 -7 31 3 85 -25 76 -39 -3 -6 -1 -7 4 -4 6 4 18 -2 28 -13 10 -11 21 -17 25
-15 7 4 157 -97 170 -114 3 -4 23 -20 45 -37 68 -50 77 -57 138 -116 41 -39
57 -60 51 -70 -5 -9 -2 -9 11 2 17 14 18 13 12 -2 -4 -12 -2 -15 9 -11 8 3 14
2 12 -3 -1 -5 30 -41 71 -81 40 -40 70 -77 66 -83 -3 -6 -3 -9 2 -8 20 7 148
-165 137 -184 -4 -6 -3 -8 4 -4 6 3 13 -3 17 -14 3 -11 10 -20 14 -20 13 0 42
-60 35 -72 -5 -7 -3 -8 5 -4 8 5 11 3 9 -6 -2 -7 1 -14 6 -15 4 -1 15 -14 22
-29 11 -20 11 -30 3 -41 -9 -11 -9 -12 4 -8 14 6 28 -15 26 -39 0 -5 3 -12 8
-15 14 -10 44 -82 38 -92 -4 -5 -2 -9 3 -9 22 0 91 -281 97 -390 2 -36 5 -72
8 -80 3 -8 8 -58 11 -110 4 -52 9 -109 12 -127 l6 -32 -58 -3 -58 -3 -2 -45
c-6 -126 -16 -607 -15 -688 1 -51 0 -96 -3 -101 -3 -4 -8 -172 -11 -372 -4
-200 -8 -366 -11 -370 -2 -4 3 -12 11 -19 8 -7 12 -17 8 -23 -3 -5 -1 -7 5 -4
14 9 43 -3 36 -14 -3 -5 2 -6 10 -3 9 3 16 1 16 -5 0 -7 9 -9 25 -5 15 4 32 1
40 -6 13 -11 14 -10 9 5 -5 12 -4 16 3 12 6 -4 21 15 34 43 l24 50 65 2 c36 1
81 2 102 3 20 0 34 3 32 7 -2 3 14 9 37 13 70 12 168 54 251 109 24 15 27 16
42 1 19 -19 21 -12 5 17 -10 18 -9 20 5 15 10 -4 15 -3 12 2 -8 12 19 33 28
23 4 -4 6 -2 4 4 -4 13 63 85 74 78 5 -3 7 -2 6 3 -2 4 19 42 47 83 27 41 51
79 52 85 1 5 12 37 23 70 11 33 23 87 26 120 3 33 9 72 14 87 5 15 5 42 0 60
-5 18 -11 56 -13 83 -3 28 -10 63 -16 78 -6 16 -11 34 -11 42 0 8 -5 17 -11
21 -6 3 -9 15 -6 25 3 11 -1 22 -8 27 -18 10 -56 77 -53 93 2 8 -2 13 -9 12
-14 -3 -35 30 -31 48 2 7 -8 15 -22 19 -14 4 -24 12 -22 19 1 7 -2 10 -7 7 -5
-4 -12 -2 -16 3 -3 5 3 15 12 21 16 10 16 10 -4 5 -15 -4 -36 4 -67 27 -25 17
-46 36 -46 41 0 4 -4 6 -9 3 -5 -3 -27 8 -50 24 -22 17 -41 28 -41 25 0 -3
-15 2 -32 12 -18 9 -35 18 -38 18 -3 1 -30 9 -62 20 l-56 18 -3 151 c-4 228
-5 250 -14 269 -4 9 -5 29 -3 42 3 14 1 25 -3 25 -5 0 -9 10 -9 23 0 12 -11
67 -24 122 -13 55 -22 103 -20 107 3 5 1 8 -5 8 -5 0 -13 15 -16 33 -4 17 -18
56 -31 86 -13 29 -21 58 -17 64 3 5 0 15 -8 21 -8 6 -36 54 -63 106 -27 52
-60 112 -73 133 -13 21 -21 42 -18 47 3 5 1 11 -4 15 -5 3 -8 14 -6 24 2 10
-3 18 -11 18 -10 0 -11 -4 -3 -14 8 -9 8 -13 1 -13 -15 0 -33 35 -24 45 4 3 1
5 -7 3 -7 -1 -16 3 -19 11 -2 8 0 11 6 7 6 -3 13 -2 17 3 3 6 -3 8 -14 6 -14
-2 -31 12 -60 51 -23 31 -38 61 -35 67 4 7 3 9 -1 4 -8 -7 -95 70 -95 84 0 4
-39 45 -87 91 -48 46 -104 100 -125 121 -21 20 -42 37 -46 37 -15 0 -42 36
-35 45 5 4 2 5 -4 1 -8 -4 -13 -2 -13 5 0 7 -3 10 -6 6 -8 -8 -34 18 -34 33 0
6 -4 8 -10 5 -12 -8 -91 55 -84 66 3 5 -2 6 -10 3 -9 -3 -16 -1 -16 5 0 6 -6
11 -14 11 -8 0 -28 14 -44 30 -17 17 -38 30 -46 30 -9 0 -16 5 -16 10 0 6 -5
10 -10 10 -6 0 -22 7 -36 17 -19 12 -22 18 -12 25 10 7 10 8 -2 5 -17 -5 -171
73 -165 84 3 4 -3 6 -12 5 -10 0 -18 4 -18 11 0 6 -4 15 -9 20 -5 5 -6 3 -2
-4 11 -20 -2 -16 -91 24 -70 31 -80 39 -70 52 10 12 9 13 -7 4 -15 -8 -36 -4
-95 20 -42 17 -78 35 -79 39 -2 5 -7 6 -11 4 -4 -3 -55 10 -114 29 -59 19
-116 35 -127 35 -11 0 -20 5 -20 11 0 5 -4 8 -9 5 -4 -3 -23 -1 -42 5 -19 5
-50 12 -69 15 -19 2 -66 11 -105 19 -38 7 -88 16 -110 19 -104 13 -149 18
-178 21 -67 7 -502 17 -507 13z"/>
<path d="M4960 6920 c-9 -6 -10 -10 -3 -10 6 0 15 5 18 10 8 12 4 12 -15 0z"/>
<path d="M2493 6765 c0 -8 4 -12 9 -9 5 3 6 10 3 15 -9 13 -12 11 -12 -6z"/>
<path d="M5495 6599 c-4 -6 -5 -12 -2 -15 2 -3 7 2 10 11 7 17 1 20 -8 4z"/>
<path d="M4997 6569 c7 -7 15 -10 18 -7 3 3 -2 9 -12 12 -14 6 -15 5 -6 -5z"/>
<path d="M5585 6530 c-3 -6 1 -7 9 -4 18 7 21 14 7 14 -6 0 -13 -4 -16 -10z"/>
<path d="M1466 6471 c-4 -5 -2 -12 3 -15 5 -4 12 -2 15 3 4 5 2 12 -3 15 -5 4
-12 2 -15 -3z"/>
<path d="M1923 6431 c0 -11 5 -18 9 -15 4 3 5 11 1 19 -7 21 -12 19 -10 -4z"/>
<path d="M1829 6343 c-13 -16 -12 -17 4 -4 9 7 17 15 17 17 0 8 -8 3 -21 -13z"/>
<path d="M5833 6307 c0 -8 6 -14 14 -14 9 0 10 4 2 14 -6 7 -12 13 -14 13 -1
0 -2 -6 -2 -13z"/>
<path d="M5896 6228 c3 -5 10 -6 15 -3 13 9 11 12 -6 12 -8 0 -12 -4 -9 -9z"/>
<path d="M5973 6147 c0 -8 6 -14 14 -14 9 0 10 4 2 14 -6 7 -12 13 -14 13 -1
0 -2 -6 -2 -13z"/>
<path d="M5636 6102 c-3 -5 1 -9 9 -9 8 0 12 4 9 9 -3 4 -7 8 -9 8 -2 0 -6 -4
-9 -8z"/>
<path d="M6030 6077 c0 -2 6 -10 14 -16 11 -9 16 -9 22 1 4 7 4 10 -1 6 -4 -4
-14 -3 -22 3 -7 6 -13 9 -13 6z"/>
<path d="M1067 6023 c3 -7 6 -13 8 -13 2 0 5 6 8 13 3 8 -1 14 -8 14 -7 0 -11
-6 -8 -14z"/>
<path d="M6130 5971 c0 -6 4 -13 10 -16 6 -3 7 1 4 9 -7 18 -14 21 -14 7z"/>
<path d="M1435 5949 c-4 -6 -5 -12 -2 -15 2 -3 7 2 10 11 7 17 1 20 -8 4z"/>
<path d="M1333 5873 c4 -3 1 -13 -6 -22 -11 -14 -10 -14 5 -2 16 12 16 31 1
31 -4 0 -3 -3 0 -7z"/>
<path d="M5796 5848 c3 -4 11 -5 19 -1 21 7 19 12 -4 10 -11 0 -18 -5 -15 -9z"/>
<path d="M929 5813 c-12 -16 -12 -17 2 -6 9 7 20 9 24 5 5 -4 5 -1 1 6 -9 16
-11 15 -27 -5z"/>
<path d="M2067 5544 c4 -11 2 -15 -4 -11 -6 4 -8 -3 -6 -17 3 -13 1 -26 -4
-29 -4 -3 -5 -61 -1 -129 9 -133 11 -155 27 -207 6 -19 8 -38 4 -44 -4 -6 -1
-7 7 -2 9 6 12 4 8 -6 -3 -8 0 -23 8 -34 23 -31 16 -40 -11 -15 -13 12 -22 26
-20 31 3 4 -5 11 -17 15 -39 12 -129 88 -123 103 4 10 2 11 -8 3 -15 -13 -32
-3 -32 18 0 10 -8 14 -22 13 -13 -2 -23 2 -23 7 0 5 -7 6 -17 3 -12 -5 -14 -3
-8 7 5 8 4 11 -3 6 -13 -8 -63 14 -56 25 3 5 -3 6 -12 2 -13 -5 -15 -3 -9 7 5
8 4 11 -2 7 -13 -8 -105 22 -98 32 2 5 -7 6 -22 3 -22 -4 -25 -2 -19 13 5 15
4 16 -8 6 -10 -9 -20 -9 -33 -3 -16 9 -18 6 -15 -36 1 -26 8 -83 14 -127 6
-44 12 -89 13 -100 1 -11 7 -33 14 -49 6 -16 13 -39 14 -50 1 -12 4 -23 8 -26
13 -12 50 -113 45 -125 -3 -10 0 -12 11 -8 11 4 14 2 9 -5 -4 -7 -2 -12 5 -12
7 0 9 -3 6 -6 -4 -4 11 -28 33 -54 22 -26 37 -50 33 -54 -3 -3 0 -6 7 -6 7 0
10 -3 6 -7 -7 -8 -104 -17 -183 -18 -29 0 -53 -3 -53 -6 0 -4 -23 -9 -51 -13
-28 -4 -80 -18 -115 -32 -58 -24 -63 -28 -59 -52 3 -15 9 -67 15 -117 16 -123
18 -136 28 -170 5 -16 8 -40 7 -52 -1 -13 1 -21 3 -18 3 3 16 -16 29 -41 17
-33 21 -50 13 -58 -5 -5 -10 -7 -10 -3 0 3 -17 -5 -37 -19 -20 -13 -43 -22
-50 -19 -9 3 -11 0 -7 -6 4 -8 -1 -9 -16 -4 -14 4 -20 3 -17 -2 4 -6 -5 -15
-19 -22 -32 -14 -47 -14 -38 1 4 7 3 8 -4 4 -6 -4 -8 -14 -5 -23 5 -12 3 -14
-8 -8 -11 7 -12 6 -3 -6 6 -8 11 -21 11 -29 1 -8 4 -24 9 -34 5 -15 4 -17 -6
-11 -7 4 -3 -5 9 -22 12 -16 23 -41 25 -55 1 -14 9 -32 17 -41 8 -8 28 -30 46
-49 17 -20 45 -42 61 -49 28 -12 31 -19 38 -74 3 -33 12 -80 20 -104 7 -25 11
-48 8 -52 -2 -4 0 -10 6 -14 5 -3 10 -12 10 -19 0 -8 12 -40 27 -72 15 -33 27
-63 28 -69 0 -5 6 -17 13 -25 35 -41 82 -122 76 -132 -4 -6 -3 -8 3 -5 14 9
47 -29 40 -46 -3 -8 0 -14 7 -13 7 0 53 -37 102 -84 49 -47 94 -87 99 -90 6
-3 9 -9 7 -13 -1 -5 1 -6 5 -4 5 3 25 -5 45 -17 26 -16 34 -26 28 -36 -4 -7
-6 -18 -4 -25 7 -16 -22 -40 -31 -25 -9 15 -25 2 -18 -15 3 -9 -1 -15 -10 -15
-8 0 -17 -3 -19 -7 -5 -14 -85 -53 -92 -46 -3 3 -6 1 -6 -6 0 -8 -8 -10 -22
-6 -15 4 -18 3 -10 -2 13 -10 -35 -33 -148 -72 -30 -10 -94 -32 -141 -49 -66
-23 -90 -27 -105 -19 -17 9 -18 9 -5 -6 14 -17 6 -21 -36 -20 -7 1 -13 -3 -13
-7 0 -5 -10 -12 -22 -15 -74 -21 -177 -70 -200 -96 -23 -23 -27 -37 -26 -73 1
-25 4 -43 7 -41 2 3 13 -12 23 -33 11 -20 31 -49 44 -63 13 -14 21 -29 17 -34
-5 -4 -3 -5 4 -1 7 4 21 -1 31 -11 10 -10 27 -20 37 -21 11 -2 22 -7 25 -10 5
-7 7 -8 73 -11 l42 -3 -60 -19 c-87 -27 -214 -52 -241 -46 -13 2 -24 1 -24 -3
0 -4 -33 -11 -72 -15 -88 -9 -99 -10 -118 -19 -56 -23 -134 -45 -143 -39 -5 3
-7 2 -4 -4 8 -13 -40 -36 -56 -27 -7 4 -9 4 -5 -1 5 -5 -15 -23 -42 -42 -52
-35 -62 -60 -35 -83 8 -7 15 -19 15 -27 0 -8 4 -12 9 -8 6 3 13 -1 18 -9 4 -7
28 -30 53 -51 25 -20 54 -44 65 -54 11 -9 23 -16 27 -16 3 0 18 -10 31 -22 14
-12 28 -19 31 -16 3 4 6 1 6 -5 0 -7 3 -11 7 -10 5 1 24 -4 43 -11 98 -38 194
-49 350 -38 136 8 146 10 183 25 34 14 40 15 32 3 -3 -5 -1 -13 5 -16 6 -4 10
-3 9 2 -3 19 2 33 12 33 5 0 7 -6 4 -12 -4 -7 -1 -6 7 3 7 9 24 20 38 24 l25
8 -25 -25 c-52 -51 -134 -109 -147 -104 -8 3 -12 2 -8 -3 7 -13 -54 -63 -67
-55 -7 4 -8 2 -4 -4 7 -11 -26 -35 -38 -27 -3 3 -4 2 -1 -2 6 -8 -37 -39 -48
-35 -5 1 -6 -1 -3 -6 7 -12 -48 -64 -59 -55 -4 5 -5 3 -2 -4 10 -16 -52 -66
-67 -54 -8 7 -16 3 -26 -12 -12 -20 -12 -21 3 -9 32 27 37 1 7 -40 -55 -75
-49 -79 97 -77 100 1 136 5 172 21 24 10 51 16 60 13 8 -3 12 -3 8 1 -7 8 109
77 130 77 7 0 10 4 8 8 -8 12 46 42 57 31 11 -11 -10 -82 -25 -82 -4 0 -6 -4
-3 -8 3 -5 -2 -31 -10 -58 -22 -70 -24 -81 -31 -156 -5 -59 -4 -68 12 -74 10
-4 26 -2 37 5 10 6 24 9 31 5 7 -4 9 -4 5 1 -7 8 20 40 34 40 4 0 8 5 9 10 1
18 21 35 32 28 6 -3 7 -1 3 6 -4 7 2 15 16 20 13 6 19 10 14 10 -5 1 11 15 35
33 24 17 46 35 47 40 2 4 8 8 13 8 6 0 8 -4 4 -10 -3 -5 -8 -33 -11 -62 -3
-29 -9 -81 -13 -115 -5 -39 -4 -66 3 -73 23 -23 125 -7 147 24 8 10 49 -2 49
-15 0 -6 -4 -8 -8 -5 -5 3 -9 -1 -9 -9 0 -10 4 -12 12 -5 13 11 40 -11 28 -23
-3 -4 -1 -7 5 -7 7 0 22 -10 34 -22 13 -13 35 -22 57 -22 20 -1 36 -6 36 -11
0 -6 10 -21 23 -35 24 -26 30 -46 10 -34 -8 4 -10 3 -5 -2 5 -5 13 -9 18 -9 5
0 9 -3 10 -7 0 -4 22 -30 49 -59 27 -29 47 -55 45 -57 -2 -3 7 -13 20 -24 14
-11 23 -24 20 -29 -4 -5 1 -9 9 -9 9 0 15 -5 13 -12 -1 -7 3 -12 10 -13 19 0
57 -45 39 -45 -8 0 -22 -3 -30 -6 -12 -4 -15 -2 -10 9 3 8 0 18 -7 23 -8 4
-10 3 -5 -4 4 -6 1 -20 -6 -32 -13 -20 -20 -20 -628 -20 l-615 0 2 -145 2
-145 970 -1 c534 0 969 -5 966 -9 -3 -5 0 -12 6 -16 7 -4 9 -3 5 4 -3 6 -2 13
4 17 5 3 10 1 10 -4 0 -6 7 -11 15 -11 8 0 15 -4 15 -10 0 -5 6 -7 13 -4 8 3
14 -2 14 -10 0 -11 -7 -14 -26 -10 -20 4 -23 3 -11 -5 23 -16 53 -14 47 3 -4
9 7 22 29 35 32 19 51 21 202 21 146 0 171 -2 195 -19 32 -21 35 -30 15 -42
-8 -5 14 -9 54 -9 38 0 67 3 66 8 -5 14 27 49 50 54 12 4 22 2 22 -3 0 -5 12
-11 28 -15 15 -3 35 -8 46 -11 13 -4 16 -1 11 8 -6 9 -3 11 8 6 10 -4 16 -2
14 5 -1 6 4 13 12 16 10 3 11 0 5 -9 -6 -11 -5 -12 7 -2 11 9 276 12 1089 13
l1075 0 -1 28 c-10 186 -15 235 -22 248 -7 13 -101 14 -729 14 -397 0 -724 4
-727 8 -9 14 41 55 56 46 7 -4 10 -4 6 0 -8 10 23 46 40 46 7 0 11 -4 8 -9 -3
-5 1 -14 8 -20 11 -9 14 -9 12 1 -1 7 -5 19 -9 26 -11 17 2 35 20 28 8 -3 12
-2 9 2 -7 11 78 94 87 86 4 -4 7 -1 7 7 0 9 13 25 28 36 29 21 29 21 87 2 32
-10 69 -19 82 -19 16 0 22 -4 17 -12 -4 -6 -3 -8 3 -5 5 3 28 7 51 8 22 2 39
6 36 10 -2 4 5 31 16 59 11 28 20 59 20 70 0 17 3 18 25 8 13 -6 22 -15 18
-21 -3 -6 -1 -7 4 -4 6 4 28 -1 49 -10 40 -16 186 -34 178 -21 -2 3 1 10 7 14
11 6 7 240 -6 367 -4 36 -3 37 23 31 15 -4 37 -11 50 -15 46 -17 203 -10 260
11 28 11 52 17 52 14 0 -3 7 1 15 8 8 7 39 29 69 48 60 38 82 74 72 116 -5 19
-4 24 6 18 7 -4 3 3 -10 15 -12 12 -19 27 -16 33 4 6 3 8 -3 5 -13 -8 -65 27
-56 38 5 4 2 5 -4 1 -8 -4 -24 4 -39 19 -14 14 -30 23 -35 19 -5 -3 -22 2 -37
13 -15 10 -36 23 -47 29 -11 6 -19 16 -17 23 1 7 -2 10 -7 6 -12 -7 -52 25
-45 37 3 4 -1 5 -9 3 -7 -3 -22 3 -32 15 -10 11 -15 20 -10 20 17 0 85 -24 85
-29 0 -4 8 -7 18 -7 9 -1 64 -11 122 -23 107 -23 301 -30 320 -11 8 8 114 52
127 53 7 0 10 4 7 9 -3 4 -1 8 3 8 5 0 21 11 36 25 15 14 27 23 27 19 0 -4 13
10 30 31 17 21 30 41 30 44 0 3 10 17 23 31 12 14 23 34 25 46 2 17 -6 23 -45
33 -26 6 -57 13 -68 14 -50 6 -205 42 -205 48 0 4 -10 5 -22 2 -19 -4 -20 -3
-8 7 12 9 10 10 -12 6 -32 -7 -80 2 -73 14 3 5 -3 6 -13 3 -11 -2 -26 2 -34
11 -9 8 -18 13 -21 10 -3 -3 -17 2 -32 12 -20 13 -23 19 -13 25 11 7 11 9 0 9
-8 0 -10 5 -6 13 6 9 4 9 -7 2 -20 -14 -55 -12 -51 3 1 7 -3 12 -10 11 -25 -3
-39 1 -34 10 4 5 73 10 155 10 85 1 182 8 226 16 42 8 82 12 87 8 6 -3 8 -1 5
4 -4 6 6 16 23 22 17 5 30 8 30 5 0 -3 10 4 22 16 25 23 39 25 56 8 9 -9 10
-6 7 12 -5 24 30 74 45 65 4 -2 7 1 7 8 0 17 33 67 44 67 5 0 8 3 7 8 -1 4 8
33 20 65 12 32 22 69 22 84 0 23 2 24 17 12 15 -13 15 -12 2 9 -8 12 -15 18
-17 12 -4 -12 -42 6 -58 28 -6 8 -15 12 -20 9 -5 -3 -34 3 -65 13 -68 23 -163
39 -249 41 -122 2 -368 30 -410 46 -8 3 -26 5 -40 4 -20 -2 -22 0 -10 9 12 8
9 9 -12 4 -16 -3 -36 -3 -45 1 -10 4 -25 9 -33 10 -99 13 -359 121 -352 147 1
5 -1 7 -6 4 -4 -2 -14 -1 -21 4 -11 6 -9 10 8 19 12 7 27 9 33 5 7 -5 8 -3 3
6 -6 10 -4 12 8 7 9 -3 20 0 24 8 13 22 140 115 148 107 4 -4 5 -2 3 4 -2 6
27 40 63 76 37 35 72 75 79 87 6 12 17 20 24 18 9 -4 13 3 12 16 -1 13 5 22
13 22 8 0 15 10 16 22 1 13 8 31 16 40 8 10 26 42 39 71 13 28 27 52 32 52 5
0 7 4 4 9 -7 11 4 42 13 37 3 -2 6 6 7 17 1 12 11 58 22 102 12 44 22 92 22
108 0 15 4 27 8 27 4 0 8 15 8 33 -1 22 4 32 14 32 8 0 24 8 35 18 61 56 86
83 91 99 3 10 10 15 16 12 6 -4 8 -2 5 3 -4 6 4 35 17 64 13 30 22 62 20 72
-1 9 2 17 8 17 7 0 7 5 -1 13 -6 8 -7 18 -3 22 4 5 1 5 -6 1 -7 -4 -24 0 -37
8 -14 9 -25 14 -25 11 0 -6 -82 34 -90 44 -3 3 -12 6 -20 6 -8 0 -14 7 -14 15
1 17 43 197 51 220 3 8 6 29 8 45 1 17 8 68 14 114 12 95 5 114 -50 126 -16 4
-29 11 -29 17 0 5 -5 8 -12 6 -7 -3 -37 2 -68 9 -30 7 -114 16 -187 19 l-132
7 17 22 c9 13 20 21 23 19 3 -2 6 2 6 9 0 13 61 108 76 118 5 3 8 9 8 13 -3
24 0 30 10 16 8 -12 9 -11 4 6 -7 25 3 56 16 48 5 -3 6 3 2 12 -4 11 -3 15 5
10 6 -3 14 -1 18 5 4 8 3 9 -4 5 -15 -9 -15 5 -1 41 7 15 13 35 14 43 2 8 10
47 19 85 29 128 30 272 1 225 -4 -6 -11 -8 -16 -4 -5 3 -16 1 -23 -5 -7 -6
-21 -12 -32 -14 -10 -2 -41 -14 -67 -25 -27 -12 -54 -19 -59 -15 -7 4 -8 1 -3
-7 6 -10 4 -12 -8 -7 -10 3 -17 3 -17 -2 0 -12 -50 -32 -62 -25 -7 5 -8 2 -3
-6 6 -10 4 -12 -9 -7 -10 4 -15 3 -11 -3 9 -15 -23 -24 -38 -11 -10 8 -14 7
-14 -4 0 -8 4 -12 9 -9 4 3 8 0 8 -5 0 -6 -7 -11 -16 -11 -8 0 -29 -14 -46
-30 -17 -17 -32 -29 -34 -27 -2 2 -25 -16 -51 -39 -25 -24 -50 -41 -54 -38 -4
2 -1 24 7 47 32 88 44 168 45 288 0 68 -3 132 -6 142 -8 18 -51 19 -63 1 -12
-16 -141 -104 -149 -102 -4 2 -10 -1 -11 -7 -2 -5 -27 -35 -56 -65 -28 -30
-67 -76 -86 -102 -18 -27 -37 -48 -42 -48 -4 0 -7 -3 -6 -7 1 -5 -4 -20 -11
-35 -9 -18 -20 -25 -33 -23 -16 3 -18 1 -8 -10 16 -19 -14 -77 -35 -69 -8 4
-12 11 -8 17 3 5 1 7 -5 3 -6 -3 -46 6 -89 21 -70 24 -93 27 -218 27 -77 1
-155 -2 -173 -6 -25 -6 -31 -5 -27 5 4 6 0 4 -9 -6 -10 -13 -21 -17 -37 -12
-13 4 -19 3 -16 -2 4 -6 -13 -16 -36 -24 -23 -8 -42 -12 -42 -9 0 3 -7 -1 -15
-8 -45 -38 -64 -52 -72 -52 -5 0 -7 -4 -4 -9 6 -10 -145 -151 -161 -151 -6 0
-18 -10 -29 -21 -27 -31 -114 -99 -126 -99 -5 0 -6 10 -3 23 5 17 4 19 -5 7
-9 -13 -12 -12 -22 5 -6 11 -45 53 -86 94 -70 70 -74 75 -56 89 17 13 17 14 2
9 -11 -4 -18 -1 -18 6 0 9 -2 9 -9 -1 -6 -9 -24 5 -68 51 -40 43 -75 70 -106
82 -26 10 -45 20 -43 24 2 3 -6 7 -17 7 -12 1 -56 9 -97 19 -55 12 -105 16
-186 13 -60 -3 -114 -7 -120 -10 -15 -9 -128 -42 -138 -39 -4 1 -13 -3 -20 -8
-14 -12 -51 13 -41 29 3 6 2 9 -5 8 -6 -2 -23 19 -38 47 -15 27 -31 54 -37 61
-5 6 -39 48 -74 93 -35 44 -68 81 -75 81 -6 0 -34 22 -63 48 -63 57 -176 123
-166 96z"/>
<path d="M4995 5509 c-4 -6 -5 -12 -2 -15 2 -3 7 2 10 11 7 17 1 20 -8 4z"/>
<path d="M2239 5473 c-13 -16 -12 -17 4 -4 9 7 17 15 17 17 0 8 -8 3 -21 -13z"/>
<path d="M2426 5272 c-3 -5 1 -9 9 -9 8 0 12 4 9 9 -3 4 -7 8 -9 8 -2 0 -6 -4
-9 -8z"/>
<path d="M4746 5272 c-3 -5 1 -9 9 -9 8 0 12 4 9 9 -3 4 -7 8 -9 8 -2 0 -6 -4
-9 -8z"/>
<path d="M4664 5149 c-4 -7 -3 -9 4 -5 5 3 13 0 15 -6 4 -9 6 -10 6 -1 1 17
-16 25 -25 12z"/>
<path d="M6477 5011 c-4 -17 -3 -21 5 -13 5 5 8 16 6 23 -3 8 -7 3 -11 -10z"/>
<path d="M3577 4749 c7 -7 15 -10 18 -7 3 3 -2 9 -12 12 -14 6 -15 5 -6 -5z"/>
<path d="M5506 4728 c3 -5 10 -6 15 -3 13 9 11 12 -6 12 -8 0 -12 -4 -9 -9z"/>
<path d="M446 4617 c3 -10 9 -15 12 -12 3 3 0 11 -7 18 -10 9 -11 8 -5 -6z"/>
<path d="M6809 4558 c-5 -18 -6 -38 -1 -34 7 8 12 36 6 36 -2 0 -4 -1 -5 -2z"/>
<path d="M186 4374 c-3 -8 -2 -15 2 -18 10 -6 26 6 29 20 3 15 -25 13 -31 -2z"/>
<path d="M7010 4261 c0 -6 4 -13 10 -16 6 -3 7 1 4 9 -7 18 -14 21 -14 7z"/>
<path d="M7085 4150 c-3 -5 -1 -10 4 -10 6 0 11 5 11 10 0 6 -2 10 -4 10 -3 0
-8 -4 -11 -10z"/>
<path d="M1151 4004 c0 -11 3 -14 6 -6 3 7 2 16 -1 19 -3 4 -6 -2 -5 -13z"/>
<path d="M5953 3775 c0 -8 4 -12 9 -9 5 3 6 10 3 15 -9 13 -12 11 -12 -6z"/>
<path d="M104 3755 c-9 -22 1 -29 15 -11 8 10 9 16 1 21 -5 3 -13 -1 -16 -10z"/>
<path d="M105 3680 c3 -5 8 -10 11 -10 2 0 4 5 4 10 0 6 -5 10 -11 10 -5 0 -7
-4 -4 -10z"/>
<path d="M200 3561 c0 -7 -5 -9 -12 -5 -7 5 -8 3 -3 -5 5 -9 10 -10 18 -2 6 6
8 14 4 18 -4 3 -7 1 -7 -6z"/>
<path d="M6965 3489 c-4 -6 -5 -12 -2 -15 2 -3 7 2 10 11 7 17 1 20 -8 4z"/>
<path d="M1125 3151 c-3 -5 -2 -12 3 -15 5 -3 9 1 9 9 0 17 -3 19 -12 6z"/>
<path d="M5368 2678 c5 -5 16 -8 23 -6 8 3 3 7 -10 11 -17 4 -21 3 -13 -5z"/>
<path d="M1168 2503 c7 -3 16 -2 19 1 4 3 -2 6 -13 5 -11 0 -14 -3 -6 -6z"/>
<path d="M1030 2476 c0 -2 7 -7 16 -10 8 -3 12 -2 9 4 -6 10 -25 14 -25 6z"/>
<path d="M6495 2461 c-3 -5 -2 -12 3 -15 5 -3 9 1 9 9 0 17 -3 19 -12 6z"/>
<path d="M6454 2188 l-19 -23 23 19 c21 18 27 26 19 26 -2 0 -12 -10 -23 -22z"/>
<path d="M6396 2132 c-3 -5 1 -17 8 -27 12 -17 13 -17 11 3 -2 26 -11 37 -19
24z"/>
<path d="M6253 2033 c0 -9 4 -10 14 -2 7 6 13 12 13 14 0 1 -6 2 -13 2 -8 0
-14 -6 -14 -14z"/>
<path d="M6289 2033 c-13 -16 -12 -17 4 -4 16 13 21 21 13 21 -2 0 -10 -8 -17
-17z"/>
<path d="M506 1767 c3 -10 9 -15 12 -12 3 3 0 11 -7 18 -10 9 -11 8 -5 -6z"/>
<path d="M6380 1696 c0 -2 7 -7 16 -10 8 -3 12 -2 9 4 -6 10 -25 14 -25 6z"/>
<path d="M5684 1478 c-4 -7 -3 -10 1 -5 5 4 19 0 33 -9 13 -9 21 -11 18 -5
-13 21 -44 32 -52 19z"/>
<path d="M1140 1396 c0 -2 8 -10 18 -17 15 -13 16 -12 3 4 -13 16 -21 21 -21
13z"/>
<path d="M1103 1335 c0 -8 4 -12 9 -9 5 3 6 10 3 15 -9 13 -12 11 -12 -6z"/>
<path d="M1674 993 c2 -10 6 -17 10 -16 15 3 16 11 2 22 -12 10 -14 9 -12 -6z"/>
<path d="M2120 616 c0 -2 8 -10 18 -17 15 -13 16 -12 3 4 -13 16 -21 21 -21
13z"/>
<path d="M4794 588 l-19 -23 23 19 c12 11 22 21 22 23 0 8 -8 2 -26 -19z"/>
<path d="M2183 545 c0 -8 4 -12 9 -9 5 3 6 10 3 15 -9 13 -12 11 -12 -6z"/>
<path d="M4696 503 c-6 -14 -5 -15 5 -6 7 7 10 15 7 18 -3 3 -9 -2 -12 -12z"/>
<path d="M2187 497 c-3 -8 1 -14 8 -14 7 0 11 6 8 14 -3 7 -6 13 -8 13 -2 0
-5 -6 -8 -13z"/>
<path d="M2266 407 c3 -10 9 -15 12 -12 3 3 0 11 -7 18 -10 9 -11 8 -5 -6z"/>
<path d="M3121 36 c-9 -11 -9 -16 1 -22 7 -4 10 -4 6 1 -4 4 -3 14 3 22 6 7 9
13 6 13 -2 0 -10 -6 -16 -14z"/>
<path d="M3485 41 c-3 -5 -2 -12 3 -15 5 -3 9 1 9 9 0 17 -3 19 -12 6z"/>
<path d="M3681 44 c-1 -6 5 -17 12 -23 10 -8 14 -7 14 4 0 8 -4 12 -8 9 -4 -2
-10 2 -12 8 -4 8 -6 9 -6 2z"/>
<path d="M3880 36 c0 -10 9 -16 21 -16 24 0 21 23 -4 28 -10 2 -17 -3 -17 -12z"/>
<path d="M4235 40 c-3 -5 1 -10 9 -10 9 0 16 5 16 10 0 6 -4 10 -9 10 -6 0
-13 -4 -16 -10z"/>
<path d="M2875 30 c3 -5 14 -10 23 -10 15 0 15 2 2 10 -20 13 -33 13 -25 0z"/>
<path d="M3465 10 c3 -5 11 -10 16 -10 6 0 7 5 4 10 -3 6 -11 10 -16 10 -6 0
-7 -4 -4 -10z"/>
<path d="M3760 10 c0 -5 4 -10 9 -10 6 0 13 5 16 10 3 6 -1 10 -9 10 -9 0 -16
-4 -16 -10z"/>
<path d="M4230 10 c-12 -8 -10 -10 8 -10 13 0 20 4 17 10 -7 12 -6 12 -25 0z"/>
<path d="M4088 3 c7 -3 16 -2 19 1 4 3 -2 6 -13 5 -11 0 -14 -3 -6 -6z"/>
</g>
</svg>
